<?xml version="1.0" encoding="utf-8"?>
<!-- Generator: Adobe Illustrator 16.0.0, SVG Export Plug-In . SVG Version: 6.00 Build 0)  -->
<!DOCTYPE svg PUBLIC "-//W3C//DTD SVG 1.1//EN" "http://www.w3.org/Graphics/SVG/1.1/DTD/svg11.dtd">
<svg version="1.1" id="Layer_1" xmlns="http://www.w3.org/2000/svg" xmlns:xlink="http://www.w3.org/1999/xlink" x="0px" y="0px"
	 width="429.091px" height="429.073px" viewBox="0 0 429.091 429.073" enable-background="new 0 0 429.091 429.073"
	 xml:space="preserve">
<g>
	<g>
		
			<linearGradient id="SVGID_1_" gradientUnits="userSpaceOnUse" x1="138.8872" y1="16.5894" x2="353.0324" y2="309.7503" gradientTransform="matrix(1 0 0 -1 -0.0151 415.3271)">
			<stop  offset="0.5484" style="stop-color:#E65C25"/>
			<stop  offset="0.7429" style="stop-color:#F0802F"/>
			<stop  offset="0.8763" style="stop-color:#F7963A"/>
		</linearGradient>
		<path fill="url(#SVGID_1_)" d="M368.978,102.61c-0.125-0.092-0.256-0.176-0.38-0.269c-24.679-13.202-54.287-20.898-86.138-20.898
			c-83.243,0-151.16,52.54-155.62,118.675c-0.143,5.877,0.245,11.884,1.276,18.017c-1.599-38.014,22.189-73.925,60.188-86.021
			c45.514-14.489,94.163,10.671,108.651,56.19c2.398,7.515,3.686,15.122,4.009,22.638
			C319.159,318.946,146.96,390.991,60.114,326.463c46.975,64.835,131.834,95.426,212.29,69.802
			c100.376-31.939,155.83-139.218,123.879-239.597C389.944,136.756,380.598,118.655,368.978,102.61z"/>
		<g>
			<path fill="#263D87" d="M240.781,296.946c-45.512,14.491-94.163-10.658-108.644-56.174c-2.397-7.51-3.696-15.125-4.02-22.64
				c-1.031-6.13-1.419-12.137-1.276-18.016c-0.057,0.871-0.151,1.746-0.188,2.626c-0.059-1.421-0.135-2.836-0.135-4.268
				c0-69.351,69.818-125.571,155.944-125.571c27.237,0,52.831,5.636,75.115,15.519C309.075,33.462,231.015,9.134,156.688,32.8
				C56.309,64.749,0.854,172.029,32.809,272.394c6.342,19.908,15.681,38.021,27.309,54.067
				c86.846,64.526,259.044-7.518,240.851-115.521C302.568,248.952,278.783,284.847,240.781,296.946z"/>
			<path fill="#263D87" d="M368.598,102.341c0.124,0.092,0.255,0.174,0.38,0.269c-0.024-0.032-0.053-0.063-0.077-0.1
				C368.798,102.455,368.698,102.395,368.598,102.341z"/>
		</g>
	</g>
	<g>
		<path fill="#FFFFFF" d="M357.691,88.345c-22.283-9.883-47.877-15.519-75.115-15.519c-86.125,0-155.943,56.221-155.943,125.571
			c0,1.431,0.076,2.847,0.135,4.268c0.037-0.881,0.131-1.755,0.188-2.626c-0.018,0.735-0.027,1.472-0.028,2.211
			c0.001-0.739,0.011-1.475,0.028-2.209c4.461-66.135,72.377-118.675,155.619-118.675c31.852,0,61.459,7.696,86.139,20.898
			c0.1,0.054,0.199,0.114,0.303,0.169c0.023,0.037,0.053,0.067,0.076,0.1c0.914,1.26,1.807,2.538,2.691,3.824
			c-4.664-7.086-9.938-13.735-15.756-19.863C356.583,87.108,357.142,87.723,357.691,88.345z"/>
		<path fill="#FFFFFF" d="M240.894,296.869c37.994-12.096,61.777-47.979,60.189-85.98c-0.002-0.008-0.004-0.015-0.004-0.022
			c-0.324-7.516-1.611-15.123-4.01-22.638c-14.488-45.52-63.137-70.679-108.65-56.19c-37.998,12.096-61.785,48.005-60.188,86.018
			c0.322,7.515,1.622,15.13,4.02,22.64C146.732,286.21,195.383,311.36,240.894,296.869z"/>
	</g>
</g>
</svg>
