<?xml version="1.0" encoding="utf-8"?>
<!-- Generator: Adobe Illustrator 23.0.3, SVG Export Plug-In . SVG Version: 6.00 Build 0)  -->
<svg version="1.1" id="Layer_1" xmlns="http://www.w3.org/2000/svg" xmlns:xlink="http://www.w3.org/1999/xlink" x="0px" y="0px"
	 viewBox="0 0 684.7 159.2" style="enable-background:new 0 0 684.7 159.2;" xml:space="preserve">
<style type="text/css">
	.st0{fill:#FFFFFF;}
</style>
<g>
	<path class="st0" d="M495.6,31.5c-3.8-2.6-8.8-4.5-14.8-5.7c-11.9-2.4-29-2.3-47.6-0.1l-1.5,0.2v86.5h23.9V88.2c0.5,0,1.1,0,1.6,0
		h3.3c15.4,0,27.1-2.6,34.7-7.7c7.8-5.3,11.8-13.5,11.8-24.3c0-5.5-0.9-10.3-2.8-14.4C502.5,37.6,499.5,34.2,495.6,31.5z
		 M458.6,69.5c-1.1-0.1-2.1-0.2-3-0.3V43c1-0.1,2-0.2,3.3-0.3c1.9-0.1,3.7-0.2,5.4-0.2c3.8,0,6.9,0.3,9.4,0.8
		c2.3,0.5,4.2,1.2,5.5,2.3c1.3,1,2.2,2.3,2.8,4c0.6,1.8,0.9,4,0.9,6.6c0,2.7-0.3,4.9-1,6.7c-0.6,1.6-1.5,2.9-2.9,3.9
		c-1.4,1-3.4,1.8-5.7,2.3C469.7,69.7,464.5,70,458.6,69.5z"/>
	<path class="st0" d="M587,34.7c-4.2-3.7-9.5-6.4-15.9-8.1c-6.3-1.7-13.9-2.6-22.6-2.6c-3.6,0-8,0.1-13,0.4
		c-5.1,0.3-10.7,0.6-16.9,1l-1.7,0.1v86.3l1.5,0.2c3.2,0.5,7.1,0.9,11.8,1.2c4.7,0.3,9.5,0.4,14.3,0.4c9.6,0,17.9-0.8,24.7-2.5
		c7-1.7,12.7-4.4,17.2-8c4.5-3.7,7.8-8.4,9.9-14.1c2-5.6,3.1-12.4,3.1-20.2c0-7.7-1-14.4-3-20C594.3,43.2,591.2,38.4,587,34.7z
		 M552.1,94.9c-2.3,0-4.5-0.1-6.5-0.2c-1.6-0.1-3.3-0.3-5-0.5V43.4c1.8-0.1,3.5-0.2,5.1-0.3c2-0.1,3.9-0.1,5.7-0.1
		c4.4,0,8.2,0.5,11.2,1.4c2.9,0.9,5.3,2.3,7,4.2c1.8,1.9,3.1,4.6,4,7.8c0.9,3.4,1.3,7.6,1.3,12.5c0,5-0.4,9.2-1.3,12.6
		c-0.8,3.2-2.1,5.9-3.9,7.8c-1.7,1.9-4,3.3-6.8,4.2C560.1,94.4,556.5,94.9,552.1,94.9z"/>
	<polygon class="st0" points="676.1,43.7 676.1,25.2 609,25.2 609,112.4 632.9,112.4 632.9,80 671.8,80 671.8,61.5 632.9,61.5 
		632.9,43.7 	"/>
</g>
<path class="st0" d="M160.3,50H179v6h0.4c3.8-3.9,9-6.7,17.5-6.7c8,0,13.3,3.2,16.6,6.2c4.6-3.4,9.5-6.2,19.4-6.2
	c9.3,0,20.3,4,20.3,15.1v47.4h-18.6V69c0-4.5-3.3-7.3-9.1-7.3c-6.9,0-9.3,3-9.3,8.5v41.5h-18.6V69c0-4.5-3.3-7.3-9.1-7.3
	c-6.9,0-9.3,3-9.3,8.5v41.5h-18.6L160.3,50L160.3,50z"/>
<path class="st0" d="M264.4,50h18.6v6h0.4c3.8-3.9,9-6.7,17.5-6.7c9.3,0,19.2,4,19.2,15.1v47.4h-18.6V69c0-4.5-3.3-7.3-9.1-7.3
	c-6.9,0-9.3,3-9.3,8.5v41.5h-18.6L264.4,50L264.4,50z"/>
<path class="st0" d="M332.4,50H351v61.8h-18.6V50z"/>
<path class="st0" d="M400.2,68.6c-0.2-4.1-4.6-6.3-9.5-6.3c-5.8,0-9.1,3-9.1,6.2c0,2.3,0.9,4.5,7.9,6.3l11,2.9
	c13.9,3.5,18.3,10.1,18.3,17.4c0,10.2-11.7,18.6-27.8,18.6c-14.6,0-27-6.5-27.8-18.6h17.5c0.7,3.4,3.1,6.9,10,6.9
	c5.3,0,10.4-2.6,10.4-6.7c0-3.4-2.2-5.7-9.3-7.6l-9-2.2c-11.7-2.9-18.8-8.8-18.8-17.1c0-10.5,12.4-18,27.4-18
	c15.2,0,26.1,7.8,26.3,18L400.2,68.6L400.2,68.6z"/>
<circle class="st0" cx="341.7" cy="33.9" r="10"/>
<g>
	<path class="st0" d="M136,40.6c0,0-0.1-0.1-0.1-0.1c-8.9-4.7-19.5-7.5-31-7.5c-29.9,0-54.4,18.9-56,42.7c-0.1,2.1,0.1,4.3,0.5,6.5
		c-0.6-13.7,8-26.6,21.6-30.9c16.4-5.2,33.9,3.8,39.1,20.2c0.9,2.7,1.3,5.4,1.4,8.1c6.5,38.8-55.4,64.7-86.6,41.5
		c16.9,23.3,47.4,34.3,76.3,25.1c36.1-11.5,56-50.1,44.5-86.2C143.6,52.9,140.2,46.4,136,40.6z"/>
	<g>
		<path class="st0" d="M89.9,110.5c-16.4,5.2-33.9-3.8-39.1-20.2c-0.9-2.7-1.3-5.4-1.4-8.1c-0.4-2.2-0.5-4.4-0.5-6.5
			c0,0.3-0.1,0.6-0.1,0.9c0-0.5,0-1,0-1.5c0-24.9,25.1-45.2,56.1-45.2c9.8,0,19,2,27,5.6C114.5,15.8,86.4,7,59.7,15.5
			C23.6,27,3.6,65.6,15.1,101.7c2.3,7.2,5.6,13.7,9.8,19.4c31.2,23.2,93.1-2.7,86.6-41.5C112.1,93.3,103.6,106.2,89.9,110.5z"/>
		<path class="st0" d="M135.9,40.6c0,0,0.1,0.1,0.1,0.1c0,0,0,0,0,0C135.9,40.6,135.9,40.6,135.9,40.6z"/>
	</g>
</g>
</svg>
