<svg version="1.1" xmlns="http://www.w3.org/2000/svg" xmlns:xlink="http://www.w3.org/1999/xlink" viewBox="75 230 680 140">
<g>
	<path fill="#E85B24" d="M562.542,253.627c-3.842-2.57-8.817-4.49-14.79-5.706c-11.873-2.405-28.961-2.322-47.557-0.076
		l-1.546,0.186v86.478h23.942v-24.266c0.537,0.018,1.064,0.027,1.58,0.027h3.342c15.417,0,27.102-2.601,34.73-7.73
		c7.831-5.262,11.801-13.451,11.801-24.341c0-5.489-0.934-10.333-2.774-14.395C569.394,259.681,566.459,256.256,562.542,253.627z
		 M525.572,291.57c-1.114-0.09-2.109-0.182-2.98-0.271v-26.185c0.951-0.093,2.041-0.186,3.269-0.279
		c1.944-0.147,3.745-0.224,5.352-0.224c3.758,0,6.909,0.256,9.365,0.754c2.31,0.477,4.174,1.244,5.545,2.281
		c1.324,1.007,2.246,2.301,2.818,3.953c0.612,1.784,0.923,4.007,0.923,6.601c0,2.663-0.328,4.913-0.976,6.684
		c-0.601,1.65-1.55,2.929-2.907,3.896c-1.418,1.02-3.352,1.774-5.748,2.253C536.58,291.753,531.423,292.049,525.572,291.57z"/>
	<path fill="#E85B24" d="M653.904,256.828c-4.171-3.676-9.532-6.416-15.939-8.142c-6.3-1.695-13.908-2.553-22.616-2.553
		c-3.613,0-8.002,0.134-13.048,0.4c-5.058,0.265-10.693,0.585-16.906,0.961l-1.654,0.1v86.302l1.458,0.248
		c3.159,0.537,7.143,0.944,11.843,1.217c4.658,0.262,9.453,0.396,14.252,0.396c9.563,0,17.88-0.834,24.719-2.483
		c6.958-1.681,12.74-4.373,17.183-7.996c4.478-3.653,7.807-8.396,9.9-14.109c2.047-5.603,3.085-12.386,3.085-20.166
		c0-7.704-0.995-14.443-2.96-20.031C661.222,265.283,658.088,260.524,653.904,256.828z M619.05,316.938
		c-2.271,0-4.468-0.055-6.528-0.165c-1.592-0.086-3.254-0.252-4.959-0.492v-50.794c1.795-0.146,3.507-0.249,5.106-0.31
		c2.045-0.073,3.935-0.107,5.665-0.107c4.424,0,8.2,0.465,11.229,1.393c2.901,0.881,5.268,2.297,7.032,4.209
		c1.788,1.932,3.122,4.565,3.962,7.827c0.876,3.415,1.32,7.621,1.32,12.504c0,4.972-0.425,9.203-1.264,12.571
		c-0.805,3.232-2.102,5.868-3.859,7.839c-1.727,1.94-4.005,3.349-6.777,4.189C627.072,316.487,623.395,316.938,619.05,316.938z"/>
	<polygon fill="#E85B24" points="743.055,265.745 743.055,247.264 675.899,247.264 675.899,334.51 699.841,334.51 699.841,302.11
		738.757,302.11 738.757,283.633 699.841,283.633 699.841,265.745 	"/>
</g>
<path fill="#1E3A8A" d="M227.279,272.109h18.634v5.971h0.365c3.838-3.901,8.953-6.701,17.538-6.701
	c8.04,0,13.338,3.167,16.627,6.214c4.567-3.414,9.5-6.214,19.365-6.214c9.318,0,20.28,4.018,20.28,15.108v47.396h-18.636v-42.767
	c0-4.51-3.287-7.313-9.134-7.313c-6.942,0-9.318,3.048-9.318,8.531v41.549h-18.634v-42.767c0-4.51-3.289-7.313-9.135-7.313
	c-6.943,0-9.318,3.048-9.318,8.531v41.549h-18.634V272.109z"/>
<path fill="#1E3A8A" d="M331.365,272.109h18.634v5.971h0.365c3.836-3.901,8.953-6.701,17.54-6.701
	c9.318,0,19.183,4.018,19.183,15.108v47.396h-18.636v-42.767c0-4.51-3.288-7.313-9.135-7.313c-6.941,0-9.318,3.048-9.318,8.531
	v41.549h-18.634V272.109z"/>
<path fill="#1E3A8A" d="M399.318,272.093h18.636v61.774h-18.636V272.093z"/>
<path fill="#1E3A8A" d="M467.098,290.724c-0.182-4.143-4.566-6.339-9.499-6.339c-5.846,0-9.135,3.048-9.135,6.215
	c0,2.316,0.913,4.509,7.856,6.338l10.961,2.924c13.886,3.531,18.27,10.112,18.27,17.422c0,10.236-11.692,18.644-27.769,18.644
	c-14.616,0-27.04-6.458-27.771-18.644h17.539c0.731,3.411,3.105,6.945,10.048,6.945c5.298,0,10.414-2.557,10.414-6.702
	c0-3.41-2.192-5.727-9.317-7.553l-8.953-2.192c-11.691-2.928-18.816-8.774-18.816-17.058c0-10.48,12.422-18.033,27.403-18.033
	c15.163,0,26.125,7.797,26.31,18.033H467.098z"/>
<circle fill="#1E3A8A" cx="408.67" cy="256.017" r="9.969"/>
<g>
	<linearGradient id="SVGID_1_" gradientUnits="userSpaceOnUse" x1="120.1992" y1="369.2148" x2="197.2019" y2="263.7996">
		<stop  offset="0.5484" style="stop-color:#E85B24"/>
		<stop  offset="0.7429" style="stop-color:#F28131"/>
		<stop  offset="0.8763" style="stop-color:#F79739"/>
	</linearGradient>
	<path fill="url(#SVGID_1_)" d="M202.942,262.733c-0.045-0.034-0.092-0.064-0.137-0.097c-8.874-4.747-19.52-7.515-30.973-7.515
		c-29.933,0-54.355,18.893-55.958,42.674c-0.052,2.114,0.088,4.274,0.459,6.479c-0.575-13.669,7.978-26.582,21.642-30.932
		c16.367-5.21,33.86,3.837,39.07,20.205c0.862,2.702,1.325,5.438,1.441,8.141c6.542,38.836-55.378,64.742-86.606,41.539
		c16.891,23.314,47.405,34.314,76.336,25.1c36.093-11.486,56.034-50.061,44.544-86.156
		C210.481,275.011,207.121,268.502,202.942,262.733z"/>
	<g>
		<path fill="#1E3A8A" d="M156.844,332.613c-16.365,5.211-33.859-3.832-39.066-20.199c-0.862-2.701-1.329-5.439-1.445-8.141
			c-0.371-2.204-0.511-4.364-0.459-6.479c-0.021,0.314-0.055,0.628-0.068,0.945c-0.021-0.511-0.048-1.02-0.048-1.535
			c0-24.937,25.105-45.153,56.075-45.153c9.794,0,18.997,2.026,27.01,5.58c-17.441-19.763-45.51-28.511-72.237-20.001
			c-36.095,11.488-56.035,50.065-44.545,86.155c2.281,7.158,5.639,13.672,9.82,19.441c31.228,23.203,93.148-2.703,86.606-41.539
			C179.062,315.355,170.51,328.262,156.844,332.613z"/>
		<path fill="#1E3A8A" d="M202.805,262.636c0.045,0.033,0.092,0.063,0.137,0.097c-0.009-0.012-0.018-0.023-0.027-0.036
			C202.878,262.677,202.842,262.656,202.805,262.636z"/>
	</g>
</g>
</svg>
