<?xml version="1.0" encoding="utf-8"?>
<!-- Generator: Adobe Illustrator 16.0.0, SVG Export Plug-In . SVG Version: 6.00 Build 0)  -->
<!DOCTYPE svg PUBLIC "-//W3C//DTD SVG 1.1//EN" "http://www.w3.org/Graphics/SVG/1.1/DTD/svg11.dtd">
<svg version="1.1" id="Layer_1" xmlns="http://www.w3.org/2000/svg" xmlns:xlink="http://www.w3.org/1999/xlink" x="0px" y="0px"
	 width="833.108px" height="406.081px" viewBox="0 0 833.108 406.081" enable-background="new 0 0 833.108 406.081"
	 xml:space="preserve">
<g>
	<linearGradient id="SVGID_1_" gradientUnits="userSpaceOnUse" x1="628.2656" y1="121.7212" x2="723.7378" y2="287.0838">
		<stop  offset="0.7" style="stop-color:#33DDD0"/>
		<stop  offset="0.7485" style="stop-color:#31D3D1"/>
		<stop  offset="0.8311" style="stop-color:#2CB8D3"/>
		<stop  offset="0.9372" style="stop-color:#248CD7"/>
		<stop  offset="1" style="stop-color:#1E6FD9"/>
	</linearGradient>
	<path fill="url(#SVGID_1_)" d="M676.892,146.863c-7.381,0-13.385-2.339-18.014-7.022c-4.635-4.68-6.952-10.487-6.952-17.414
		c0-6.928,2.317-12.733,6.952-17.416c4.629-4.679,10.633-7.022,18.014-7.022c7.376,0,13.382,2.202,18.017,6.601
		c4.632,4.403,6.949,10.064,6.949,16.993c0,7.304-2.275,13.339-6.819,18.118C690.488,144.477,684.439,146.863,676.892,146.863z
		 M655.491,303.304V164.837h40.151v138.467H655.491z"/>
	<linearGradient id="SVGID_2_" gradientUnits="userSpaceOnUse" x1="729.2197" y1="139.1924" x2="820.7256" y2="297.6852">
		<stop  offset="0.7" style="stop-color:#33DDD0"/>
		<stop  offset="0.7465" style="stop-color:#32D6D1;stop-opacity:0.969"/>
		<stop  offset="0.8163" style="stop-color:#2EC1D2;stop-opacity:0.9225"/>
		<stop  offset="0.9006" style="stop-color:#27A0D5;stop-opacity:0.8663"/>
		<stop  offset="0.9957" style="stop-color:#1E71D9;stop-opacity:0.8029"/>
		<stop  offset="1" style="stop-color:#1E6FD9;stop-opacity:0.8"/>
	</linearGradient>
	<path fill="url(#SVGID_2_)" d="M811.458,268.3c-4.463,3.436-9.868,5.147-16.216,5.147c-5.32,0-9.521-1.581-12.611-4.761
		c-3.088-3.174-4.632-7.678-4.632-13.513v-59.451h34.489v-30.887h-34.489V134.21h-40.151v30.627h-21.361v30.887h21.361v59.967
		c0,16.47,4.545,28.867,13.642,37.188c9.092,8.327,21.788,12.483,38.091,12.483c6.176,0,12.137-0.732,17.89-2.188
		c5.743-1.454,10.678-3.64,14.796-6.563L811.458,268.3z"/>
	<g>
		<defs>
			<path id="SVGID_3_" d="M603.245,305.362c-6.861,0-12.738-2.356-17.63-7.077c-4.889-4.717-7.333-10.766-7.333-18.144
				c0-7.377,2.444-13.34,7.333-17.89c4.892-4.543,10.769-6.819,17.63-6.819c7.037,0,12.953,2.276,17.757,6.819
				c4.805,4.55,7.212,10.513,7.212,17.89c0,7.378-2.407,13.427-7.212,18.144C616.198,303.005,610.282,305.362,603.245,305.362z"/>
		</defs>
		<clipPath id="SVGID_4_">
			<use xlink:href="#SVGID_3_"  overflow="visible"/>
		</clipPath>
		<linearGradient id="SVGID_5_" gradientUnits="userSpaceOnUse" x1="546.3877" y1="222.8599" x2="602.5688" y2="320.1685">
			<stop  offset="0.4" style="stop-color:#33DDD0"/>
			<stop  offset="0.493" style="stop-color:#32D6D1"/>
			<stop  offset="0.6325" style="stop-color:#2EC1D2"/>
			<stop  offset="0.8012" style="stop-color:#27A0D5"/>
			<stop  offset="0.9914" style="stop-color:#1E71D9"/>
			<stop  offset="1" style="stop-color:#1E6FD9"/>
		</linearGradient>
		<rect x="520.742" y="237.666" clip-path="url(#SVGID_4_)" fill="url(#SVGID_5_)" width="107.472" height="67.696"/>
	</g>
	<g>
		
			<linearGradient id="SVGID_6_" gradientUnits="userSpaceOnUse" x1="317.5093" y1="11.9106" x2="317.5093" y2="124.0391" gradientTransform="matrix(-1 0 0 1 584.2578 0)">
			<stop  offset="0" style="stop-color:#33DDD0"/>
			<stop  offset="0.1066" style="stop-color:#32D8D0;stop-opacity:0.9316"/>
			<stop  offset="0.2306" style="stop-color:#2FCAD2;stop-opacity:0.8521"/>
			<stop  offset="0.3632" style="stop-color:#2BB3D3;stop-opacity:0.7671"/>
			<stop  offset="0.5009" style="stop-color:#2592D6;stop-opacity:0.6787"/>
			<stop  offset="0.6237" style="stop-color:#1E6FD9;stop-opacity:0.6"/>
			<stop  offset="0.6255" style="stop-color:#1E6FD9;stop-opacity:0.5968"/>
			<stop  offset="0.9677" style="stop-color:#1E6FD9;stop-opacity:0"/>
		</linearGradient>
		<path fill="url(#SVGID_6_)" d="M161.573,52.287c0,0-55.413,7.918-79.841,71.752h-9.269
			C90.16,25.406,188.831,14.554,188.831,14.554C346.658-8.253,461.033,124.039,461.033,124.039H339.222
			C303.503,87.064,239.451,37.684,161.573,52.287z"/>
		
			<linearGradient id="SVGID_7_" gradientUnits="userSpaceOnUse" x1="283.2026" y1="393.7173" x2="283.2026" y2="281.5894" gradientTransform="matrix(-1 0 0 1 584.2578 0)">
			<stop  offset="0" style="stop-color:#33DDD0"/>
			<stop  offset="0.1066" style="stop-color:#32D8D0;stop-opacity:0.9316"/>
			<stop  offset="0.2306" style="stop-color:#2FCAD2;stop-opacity:0.8521"/>
			<stop  offset="0.3632" style="stop-color:#2BB3D3;stop-opacity:0.7671"/>
			<stop  offset="0.5009" style="stop-color:#2592D6;stop-opacity:0.6787"/>
			<stop  offset="0.6237" style="stop-color:#1E6FD9;stop-opacity:0.6"/>
			<stop  offset="0.6255" style="stop-color:#1E6FD9;stop-opacity:0.5968"/>
			<stop  offset="0.9677" style="stop-color:#1E6FD9;stop-opacity:0"/>
		</linearGradient>
		<path fill="url(#SVGID_7_)" d="M406.232,353.34c0,0,55.413-7.917,79.84-71.751h9.267
			c-17.692,98.632-116.364,109.484-116.364,109.484c-157.83,22.808-272.202-109.484-272.202-109.484h121.812
			C264.303,318.565,328.352,367.944,406.232,353.34z"/>
	</g>
	<g>
		<path fill="#FFFFFF" d="M139.447,116.936c-12.473-5.592-27.45-8.427-44.512-8.427H15h-4.335v4.335v184.669v4.335H15h42.736h4.335
			v-4.335v-46.581h32.863c17.074,0,32.05-2.835,44.512-8.426c12.676-5.685,22.621-13.988,29.561-24.679
			c6.942-10.697,10.46-23.474,10.46-37.976c0-14.675-3.519-27.541-10.459-38.237C162.072,130.93,152.125,122.626,139.447,116.936z
			 M62.071,152.003H92.56c12.055,0,21.042,2.485,26.711,7.387c5.559,4.811,8.262,11.505,8.262,20.462
			c0,8.784-2.703,15.391-8.262,20.201c-5.665,4.9-14.652,7.385-26.711,7.385H62.071V152.003z"/>
		<path fill="#FFFFFF" d="M344.33,120.443c-15.837-7.918-34.329-11.934-54.965-11.934h-83.892h-4.335v4.335v184.669v4.335h4.335
			h83.892c20.635,0,39.126-4.015,54.965-11.934c15.956-7.978,28.613-19.339,37.618-33.767c9.014-14.444,13.585-31.593,13.585-50.97
			c0-19.555-4.573-36.751-13.591-51.112C372.932,139.73,360.279,128.417,344.33,120.443z M252.544,152.268h34.709
			c11.55,0,21.669,2.19,30.072,6.511c8.273,4.259,14.785,10.358,19.349,18.127c4.592,7.818,6.922,17.331,6.922,28.273
			c0,10.781-2.333,20.255-6.931,28.158c-4.567,7.854-11.073,13.991-19.34,18.242c-8.397,4.321-18.513,6.512-30.072,6.512h-34.709
			V152.268z"/>
		<polygon fill="#FFFFFF" points="562.937,108.509 423.377,108.509 419.042,108.509 419.042,112.845 419.042,297.514 
			419.042,301.849 423.377,301.849 466.116,301.849 470.452,301.849 470.452,297.514 470.452,234.577 551.593,234.577 
			555.928,234.577 555.928,230.241 555.928,195.947 555.928,191.611 551.593,191.611 470.452,191.611 470.452,151.476 
			562.937,151.476 567.271,151.476 567.271,147.14 567.271,112.845 567.271,108.509 		"/>
	</g>
</g>
</svg>
