<?xml version="1.0" encoding="utf-8"?>
<!-- Generator: Adobe Illustrator 16.0.0, SVG Export Plug-In . SVG Version: 6.00 Build 0)  -->
<!DOCTYPE svg PUBLIC "-//W3C//DTD SVG 1.1//EN" "http://www.w3.org/Graphics/SVG/1.1/DTD/svg11.dtd">
<svg version="1.1" id="Layer_1" xmlns="http://www.w3.org/2000/svg" xmlns:xlink="http://www.w3.org/1999/xlink" x="0px" y="0px"
	 width="841.89px" height="595.28px" viewBox="0 0 841.89 595.28" enable-background="new 0 0 841.89 595.28" xml:space="preserve">
<linearGradient id="SVGID_1_" gradientUnits="userSpaceOnUse" x1="617.749" y1="222.5879" x2="706.5181" y2="376.3404">
	<stop  offset="0.629" style="stop-color:#202020"/>
	<stop  offset="1" style="stop-color:#9B9B9B"/>
</linearGradient>
<path fill="url(#SVGID_1_)" d="M662.964,245.963c-6.864,0-12.448-2.174-16.745-6.528c-4.311-4.354-6.465-9.751-6.465-16.191
	c0-6.442,2.154-11.836,6.465-16.194c4.297-4.351,9.881-6.528,16.745-6.528c6.858,0,12.441,2.047,16.752,6.135
	c4.304,4.095,6.458,9.362,6.458,15.801c0,6.792-2.11,12.404-6.338,16.844C675.608,243.745,669.98,245.963,662.964,245.963z
	 M643.062,391.419V262.674H680.4v128.745H643.062z"/>
<linearGradient id="SVGID_2_" gradientUnits="userSpaceOnUse" x1="711.6182" y1="238.832" x2="796.6968" y2="386.1925">
	<stop  offset="0.629" style="stop-color:#202020"/>
	<stop  offset="0.6822" style="stop-color:#272727"/>
	<stop  offset="0.7631" style="stop-color:#3D3D3D"/>
	<stop  offset="0.8617" style="stop-color:#5F5F5F"/>
	<stop  offset="0.9732" style="stop-color:#8E8E8E"/>
	<stop  offset="1" style="stop-color:#9B9B9B"/>
</linearGradient>
<path fill="url(#SVGID_2_)" d="M788.08,358.872c-4.152,3.194-9.172,4.785-15.079,4.785c-4.943,0-8.854-1.471-11.726-4.427
	c-2.871-2.951-4.304-7.137-4.304-12.563v-55.275h32.065v-28.718h-32.065V234.2H719.64v28.475h-19.863v28.718h19.863v55.754
	c0,15.313,4.228,26.839,12.683,34.578c8.455,7.742,20.257,11.608,35.418,11.608c5.742,0,11.282-0.682,16.632-2.038
	c5.343-1.35,9.925-3.385,13.76-6.101L788.08,358.872z"/>
<g>
	<defs>
		<path id="SVGID_3_" d="M594.486,393.333c-6.377,0-11.847-2.19-16.385-6.582c-4.551-4.384-6.826-10.009-6.826-16.869
			c0-6.858,2.275-12.401,6.826-16.632c4.538-4.225,10.008-6.341,16.385-6.341c6.541,0,12.049,2.116,16.518,6.341
			c4.462,4.23,6.699,9.773,6.699,16.632c0,6.86-2.237,12.485-6.699,16.869C606.535,391.143,601.027,393.333,594.486,393.333z"/>
	</defs>
	<linearGradient id="SVGID_4_" gradientUnits="userSpaceOnUse" x1="582.8721" y1="349.7666" x2="606.3008" y2="390.3463">
		<stop  offset="0.629" style="stop-color:#202020"/>
		<stop  offset="1" style="stop-color:#9B9B9B"/>
	</linearGradient>
	<use xlink:href="#SVGID_3_"  overflow="visible" fill="url(#SVGID_4_)"/>
	<clipPath id="SVGID_5_">
		<use xlink:href="#SVGID_3_"  overflow="visible"/>
	</clipPath>
	<linearGradient id="SVGID_6_" gradientUnits="userSpaceOnUse" x1="541.625" y1="316.624" x2="593.8608" y2="407.0992">
		<stop  offset="0.629" style="stop-color:#202020"/>
		<stop  offset="1" style="stop-color:#9B9B9B"/>
	</linearGradient>
	<rect x="517.781" y="330.389" clip-path="url(#SVGID_5_)" fill="url(#SVGID_6_)" width="99.922" height="62.944"/>
</g>
<linearGradient id="SVGID_7_" gradientUnits="userSpaceOnUse" x1="311.9312" y1="120.4883" x2="311.9312" y2="224.7432" gradientTransform="matrix(-1 0 0 1 593.5547 0)">
	<stop  offset="0.4409" style="stop-color:#202020"/>
	<stop  offset="0.5156" style="stop-color:#272727;stop-opacity:0.8567"/>
	<stop  offset="0.6293" style="stop-color:#3D3D3D;stop-opacity:0.6386"/>
	<stop  offset="0.7679" style="stop-color:#5F5F5F;stop-opacity:0.3729"/>
	<stop  offset="0.9247" style="stop-color:#8E8E8E;stop-opacity:0.0721"/>
	<stop  offset="0.9624" style="stop-color:#9B9B9B;stop-opacity:0"/>
</linearGradient>
<path fill="url(#SVGID_7_)" d="M183.831,158.028c0,0-51.517,7.362-74.23,66.715h-8.62C117.435,133.04,209.18,122.946,209.18,122.946
	c146.742-21.205,253.086,101.797,253.086,101.797H349.01C315.794,190.365,256.241,144.455,183.831,158.028z"/>
<linearGradient id="SVGID_8_" gradientUnits="userSpaceOnUse" x1="280.0347" y1="475.4834" x2="280.0347" y2="371.2285" gradientTransform="matrix(-1 0 0 1 593.5547 0)">
	<stop  offset="0.4301" style="stop-color:#202020"/>
	<stop  offset="0.501" style="stop-color:#272727;stop-opacity:0.8567"/>
	<stop  offset="0.6089" style="stop-color:#3D3D3D;stop-opacity:0.6386"/>
	<stop  offset="0.7403" style="stop-color:#5F5F5F;stop-opacity:0.3729"/>
	<stop  offset="0.889" style="stop-color:#8E8E8E;stop-opacity:0.0721"/>
	<stop  offset="0.9247" style="stop-color:#9B9B9B;stop-opacity:0"/>
</linearGradient>
<path fill="url(#SVGID_8_)" d="M411.314,437.94c0,0,51.522-7.358,74.231-66.712h8.614
	c-16.448,91.704-108.191,101.798-108.191,101.798C239.223,494.23,132.881,371.229,132.881,371.229h113.26
	C279.35,405.606,338.9,451.518,411.314,437.94z"/>
<linearGradient id="SVGID_9_" gradientUnits="userSpaceOnUse" x1="87.2339" y1="198.5889" x2="135.3768" y2="378.2605">
	<stop  offset="0.629" style="stop-color:#202020"/>
	<stop  offset="1" style="stop-color:#9B9B9B"/>
</linearGradient>
<path fill="url(#SVGID_9_)" d="M163.26,218.139c-11.596-5.204-25.521-7.837-41.385-7.837H47.553h-4.031v4.034v171.698v4.031h4.031
	h39.737h4.031v-4.031v-43.309h30.553c15.877,0,29.802-2.634,41.385-7.834c11.789-5.283,21.037-13.006,27.489-22.944
	c6.452-9.947,9.723-21.829,9.723-35.31c0-13.643-3.271-25.606-9.723-35.551C184.299,231.148,175.049,223.428,163.26,218.139z
	 M91.321,250.743h28.344c11.209,0,19.566,2.31,24.836,6.871c5.172,4.472,7.682,10.692,7.682,19.024
	c0,8.167-2.51,14.309-7.682,18.783c-5.264,4.554-13.624,6.865-24.836,6.865H91.321V250.743z"/>
<linearGradient id="SVGID_10_" gradientUnits="userSpaceOnUse" x1="286.0176" y1="198.771" x2="319.592" y2="389.1813">
	<stop  offset="0.629" style="stop-color:#202020"/>
	<stop  offset="0.6822" style="stop-color:#272727"/>
	<stop  offset="0.7631" style="stop-color:#3D3D3D"/>
	<stop  offset="0.8617" style="stop-color:#5F5F5F"/>
	<stop  offset="0.9732" style="stop-color:#8E8E8E"/>
	<stop  offset="1" style="stop-color:#9B9B9B"/>
</linearGradient>
<path fill="url(#SVGID_10_)" d="M353.757,221.4c-14.727-7.362-31.919-11.098-51.104-11.098h-78.004h-4.028v4.034v171.698v4.031
	h4.028h78.004c19.186,0,36.378-3.733,51.104-11.095c14.838-7.419,26.605-17.979,34.975-31.396
	c8.382-13.431,12.632-29.374,12.632-47.388c0-18.181-4.253-34.172-12.635-47.523C380.349,239.331,368.585,228.813,353.757,221.4z
	 M268.42,250.99h32.268c10.743,0,20.149,2.035,27.958,6.053c7.695,3.958,13.748,9.627,17.994,16.856
	c4.269,7.267,6.437,16.115,6.437,26.287c0,10.021-2.171,18.831-6.446,26.177c-4.244,7.302-10.296,13.01-17.985,16.961
	c-7.802,4.021-17.211,6.057-27.958,6.057H268.42V250.99z"/>
<linearGradient id="SVGID_11_" gradientUnits="userSpaceOnUse" x1="465.0449" y1="199.0957" x2="513.1878" y2="378.7673">
	<stop  offset="0.629" style="stop-color:#202020"/>
	<stop  offset="1" style="stop-color:#9B9B9B"/>
</linearGradient>
<polygon fill="url(#SVGID_11_)" points="557.009,210.302 427.253,210.302 423.224,210.302 423.224,214.336 423.224,386.034 
	423.224,390.065 427.253,390.065 466.987,390.065 471.024,390.065 471.024,386.034 471.024,327.514 546.462,327.514 
	550.499,327.514 550.499,323.486 550.499,291.599 550.499,287.571 546.462,287.571 471.024,287.571 471.024,250.254 
	557.009,250.254 561.039,250.254 561.039,246.22 561.039,214.336 561.039,210.302 "/>
</svg>
